<?xml version="1.0" encoding="utf-8"?>
<!-- Generator: Adobe Illustrator 15.0.0, SVG Export Plug-In . SVG Version: 6.00 Build 0)  -->
<!DOCTYPE svg PUBLIC "-//W3C//DTD SVG 1.1//EN" "http://www.w3.org/Graphics/SVG/1.1/DTD/svg11.dtd">
<svg version="1.1" id="Layer_1" xmlns="http://www.w3.org/2000/svg" x="0px" y="0px"
     width="17px" height="17px" viewBox="0 0 17 17" enable-background="new 0 0 17 17" xml:space="preserve">
<path fill="#008991" d="M6.2,11.273c-0.2,0.2-0.524,0.201-0.725,0.001c-0.2-0.2-0.201-0.525,0-0.727L9.674,6.35H6.837
	c-0.283,0-0.513-0.229-0.513-0.514c0-0.282,0.23-0.512,0.513-0.512h4.074c0.283,0,0.513,0.23,0.513,0.512v4.076
	c0,0.283-0.229,0.513-0.513,0.513s-0.512-0.229-0.512-0.513V7.074L6.2,11.273z M16.601,8.399c0,4.529-3.672,8.201-8.201,8.201
	s-8.2-3.672-8.2-8.201s3.671-8.2,8.2-8.2S16.601,3.87,16.601,8.399 M1.225,8.399c0,3.964,3.212,7.176,7.175,7.176
	c3.963,0,7.175-3.212,7.175-7.176c0-3.963-3.212-7.175-7.175-7.175C4.437,1.225,1.225,4.437,1.225,8.399"/>
</svg>
