<?xml version="1.0" encoding="UTF-8" standalone="no"?>
<!-- Generator: Adobe Illustrator 15.0.0, SVG Export Plug-In  -->
<svg xmlns:dc="http://purl.org/dc/elements/1.1/" xmlns:cc="http://creativecommons.org/ns#" xmlns:rdf="http://www.w3.org/1999/02/22-rdf-syntax-ns#" xmlns="http://www.w3.org/2000/svg" xmlns:sodipodi="http://sodipodi.sourceforge.net/DTD/sodipodi-0.dtd" xmlns:inkscape="http://www.inkscape.org/namespaces/inkscape" version="1.1" x="0px" y="0px" width="42px" height="42px" viewBox="-0.013 -0.109 42 42" enable-background="new -0.013 -0.109 42 42" xml:space="preserve" id="svg14" sodipodi:docname="email-light.svg" inkscape:version="0.92.5 (2060ec1f9f, 2020-04-08)"><metadata id="metadata18"><rdf:RDF><cc:Work rdf:about=""><dc:format>image/svg+xml</dc:format><dc:type rdf:resource="http://purl.org/dc/dcmitype/StillImage"/></cc:Work></rdf:RDF></metadata>
  <sodipodi:namedview pagecolor="#ffffff" bordercolor="#666666" borderopacity="1" objecttolerance="10" gridtolerance="10" guidetolerance="10" inkscape:pageopacity="0" inkscape:pageshadow="2" inkscape:window-width="1920" inkscape:window-height="1143" id="namedview16" showgrid="false" inkscape:zoom="15.893067" inkscape:cx="12.159826" inkscape:cy="17.930984" inkscape:window-x="1920" inkscape:window-y="25" inkscape:window-maximized="1" inkscape:current-layer="svg14"/>
  <defs id="defs2">
</defs>
  <path fill="#123370" d="M24.332,1.4c-1.869-1.867-4.898-1.867-6.766,0L1.402,17.564c-1.869,1.868-1.869,4.898,0,6.766l16.164,16.164  c1.868,1.869,4.897,1.869,6.766,0L40.496,24.33c1.867-1.867,1.867-4.897,0-6.766L24.332,1.4z" id="path4"/>
  <path fill="#FFFFFF" d="M12.596,26.281h16.707V14.198H12.596V26.281z M29.543,26.764H12.354c-0.133,0-0.241-0.109-0.241-0.242  V13.956c0-0.133,0.108-0.241,0.241-0.241h17.188c0.133,0,0.24,0.108,0.24,0.241v12.565C29.783,26.654,29.676,26.764,29.543,26.764" id="path6" style="stroke-width:1.8;stroke-miterlimit:10;stroke-dasharray:none"/>
  <path fill="none" stroke="#FFFFFF" stroke-width="0.303" stroke-miterlimit="10" d="M12.596,26.281h16.707V14.198H12.596V26.281z   M29.543,26.764H12.354c-0.133,0-0.241-0.109-0.241-0.242V13.956c0-0.133,0.108-0.241,0.241-0.241h17.188  c0.133,0,0.24,0.108,0.24,0.241v12.565C29.783,26.654,29.676,26.764,29.543,26.764z" id="path8" style="stroke-width:1.8;stroke-miterlimit:10;stroke-dasharray:none"/>
  <path fill="#FFFFFF" d="M20.949,22.137c-0.059,0-0.117-0.021-0.163-0.064l-8.595-7.939c-0.097-0.09-0.103-0.242-0.013-0.34  c0.09-0.098,0.243-0.104,0.34-0.013l8.431,7.788l8.43-7.788c0.098-0.091,0.25-0.085,0.341,0.013c0.09,0.098,0.084,0.25-0.015,0.34  l-8.594,7.939C21.065,22.115,21.008,22.137,20.949,22.137" id="path10" style="stroke-width:1.8;stroke-miterlimit:10;stroke-dasharray:none"/>
  <path fill="none" stroke="#FFFFFF" stroke-width="0.303" stroke-miterlimit="10" d="M20.949,22.137  c-0.059,0-0.117-0.021-0.163-0.064l-8.595-7.939c-0.097-0.09-0.103-0.242-0.013-0.34c0.09-0.098,0.243-0.104,0.34-0.013l8.431,7.788  l8.43-7.788c0.098-0.091,0.25-0.085,0.341,0.013c0.09,0.098,0.084,0.25-0.015,0.34l-8.594,7.939  C21.065,22.115,21.008,22.137,20.949,22.137z" id="path12" style="stroke-width:1.8;stroke-miterlimit:10;stroke-dasharray:none"/>
</svg>