<?xml version="1.0" encoding="utf-8"?>
<!-- Generator: Adobe Illustrator 15.0.0, SVG Export Plug-In . SVG Version: 6.00 Build 0)  -->
<!DOCTYPE svg PUBLIC "-//W3C//DTD SVG 1.1//EN" "http://www.w3.org/Graphics/SVG/1.1/DTD/svg11.dtd">
<svg version="1.1" id="Layer_1" xmlns="http://www.w3.org/2000/svg" xmlns:xlink="http://www.w3.org/1999/xlink" x="0px" y="0px"
	 width="23px" height="18px" viewBox="0 0 23 18" enable-background="new 0 0 23 18" xml:space="preserve">
<g>
	<path fill="#092D53" d="M3.847,16.449c-0.095,0.423-0.142,0.493-0.493,0.493H0.985c-0.306,0-0.446-0.047-0.47-0.211
		c0-0.117,0.07-0.306,0.094-0.399l4.62-15.103c0.095-0.305,0.118-0.352,0.517-0.352h2.438c0.353,0,0.399,0.094,0.493,0.375
		l4.597,15.126c0.023,0.094,0.094,0.282,0.094,0.376c0,0.141-0.234,0.188-0.469,0.188h-2.627c-0.234,0-0.281-0.07-0.398-0.493
		L8.842,12.65H4.808L3.847,16.449z M7.294,6.506C7.083,5.591,6.896,4.208,6.778,3.223H6.73C6.637,4.208,6.426,5.568,6.191,6.506
		l-1.032,4.033h3.097L7.294,6.506z"/>
</g>
<g>
	<path fill="#092D53" d="M16.526,13.895c-0.063,0.287-0.096,0.336-0.335,0.336h-1.612c-0.207,0-0.303-0.032-0.318-0.145
		c0-0.08,0.048-0.207,0.063-0.271l3.145-10.278c0.063-0.208,0.079-0.239,0.351-0.239h1.66c0.239,0,0.271,0.064,0.335,0.255
		l3.129,10.294c0.016,0.063,0.063,0.192,0.063,0.256c0,0.096-0.159,0.128-0.319,0.128H20.9c-0.16,0-0.192-0.049-0.271-0.336
		l-0.702-2.586h-2.746L16.526,13.895z M18.873,7.127c-0.144-0.623-0.271-1.564-0.352-2.234H18.49
		c-0.064,0.67-0.208,1.596-0.367,2.234l-0.702,2.745h2.106L18.873,7.127z"/>
</g>
</svg>
