<?xml version="1.0" encoding="utf-8"?>
<!-- Generator: Adobe Illustrator 15.0.0, SVG Export Plug-In . SVG Version: 6.00 Build 0)  -->
<!DOCTYPE svg PUBLIC "-//W3C//DTD SVG 1.1//EN" "http://www.w3.org/Graphics/SVG/1.1/DTD/svg11.dtd">
<svg version="1.1" id="Layer_1" xmlns="http://www.w3.org/2000/svg" xmlns:xlink="http://www.w3.org/1999/xlink" x="0px" y="0px"
	 width="41.9px" height="41.9px" viewBox="0 0 41.9 41.9" enable-background="new 0 0 41.9 41.9" xml:space="preserve">
<path fill="#053775" d="M24.335,1.404c-1.869-1.868-4.898-1.868-6.767,0L1.404,17.568c-1.868,1.868-1.868,4.898,0,6.766
	l16.164,16.164c1.868,1.869,4.897,1.869,6.767,0l16.164-16.164c1.868-1.867,1.868-4.897,0-6.766L24.335,1.404z"/>
<path fill="#ffffff" d="M26.001,14.82c-0.617,0-1.118,0.501-1.118,1.118c0,0.618,0.501,1.118,1.118,1.118
	c0.618,0,1.118-0.5,1.118-1.118C27.119,15.321,26.619,14.82,26.001,14.82"/>
<circle fill="none" stroke="#ffffff" stroke-width="0.64" stroke-miterlimit="10" cx="26.001" cy="15.938" r="1.118"/>
<path fill="#ffffff" d="M21.03,23.961c-1.659,0-3.009-1.351-3.009-3.01c0-1.658,1.35-3.009,3.009-3.009s3.009,1.351,3.009,3.009
	C24.039,22.61,22.689,23.961,21.03,23.961 M21.03,16.255c-2.591,0-4.697,2.106-4.697,4.696c0,2.591,2.106,4.697,4.697,4.697
	c2.59,0,4.696-2.106,4.696-4.697C25.727,18.361,23.62,16.255,21.03,16.255"/>
<path fill="none" stroke="#ffffff" stroke-width="0.64" stroke-miterlimit="10" d="M21.03,23.961c-1.659,0-3.009-1.351-3.009-3.01
	c0-1.658,1.35-3.009,3.009-3.009s3.009,1.351,3.009,3.009C24.039,22.61,22.689,23.961,21.03,23.961z M21.03,16.255
	c-2.591,0-4.697,2.106-4.697,4.696c0,2.591,2.106,4.697,4.697,4.697c2.59,0,4.696-2.106,4.696-4.697
	C25.727,18.361,23.62,16.255,21.03,16.255z"/>
<path fill="#ffffff" d="M17.144,13.21c-2.169,0-3.934,1.765-3.934,3.934v7.615c0,2.17,1.765,3.935,3.934,3.935h7.615
	c2.17,0,3.935-1.765,3.935-3.935v-7.615c0-2.169-1.765-3.934-3.935-3.934H17.144z M24.759,30.487h-7.615
	c-3.158,0-5.728-2.569-5.728-5.729v-7.615c0-3.159,2.569-5.729,5.728-5.729h7.615c3.159,0,5.729,2.569,5.729,5.729v7.615
	C30.487,27.918,27.918,30.487,24.759,30.487"/>
<path fill="none" stroke="#ffffff" stroke-width="0.64" stroke-miterlimit="10" d="M17.144,13.21c-2.169,0-3.934,1.765-3.934,3.934
	v7.615c0,2.17,1.765,3.935,3.934,3.935h7.615c2.17,0,3.935-1.765,3.935-3.935v-7.615c0-2.169-1.765-3.934-3.935-3.934H17.144z
	 M24.759,30.487h-7.615c-3.158,0-5.728-2.569-5.728-5.729v-7.615c0-3.159,2.569-5.729,5.728-5.729h7.615
	c3.159,0,5.729,2.569,5.729,5.729v7.615C30.487,27.918,27.918,30.487,24.759,30.487z"/>
</svg>
