<?xml version="1.0" encoding="UTF-8"?>
<!-- Generator: Adobe Illustrator 15.0.0, SVG Export Plug-In . SVG Version: 6.00 Build 0)  -->
<!DOCTYPE svg PUBLIC "-//W3C//DTD SVG 1.1//EN" "http://www.w3.org/Graphics/SVG/1.1/DTD/svg11.dtd">
<svg version="1.1" id="Layer_1" xmlns="http://www.w3.org/2000/svg" xmlns:xlink="http://www.w3.org/1999/xlink" x="0px" y="0px" width="41.9px" height="41.9px" viewBox="0 0 41.9 41.9" enable-background="new 0 0 41.9 41.9" xml:space="preserve">
<path fill="#053775" d="M24.359,1.367c-1.869-1.868-4.898-1.868-6.767,0L1.43,17.531c-1.869,1.868-1.869,4.898,0,6.766  l16.163,16.164c1.868,1.869,4.897,1.869,6.767,0l16.164-16.164c1.868-1.867,1.868-4.897,0-6.766L24.359,1.367z"/>
<path fill="#ffffff" d="M15.385,11.806c1.074,0,1.945,0.872,1.945,1.944c0,1.074-0.871,1.947-1.945,1.947  c-1.078,0-1.947-0.873-1.947-1.947C13.438,12.678,14.307,11.806,15.385,11.806 M13.704,17.17h3.36v10.794h-3.36V17.17z"/>
<path fill="#ffffff" d="M19.169,17.17h3.218v1.476h0.045c0.448-0.849,1.543-1.743,3.177-1.743c3.396,0,4.022,2.234,4.022,5.142v5.92  h-3.352v-5.248c0-1.253-0.025-2.862-1.744-2.862c-1.746,0-2.013,1.363-2.013,2.771v5.339h-3.354V17.17z"/>
</svg>