<?xml version="1.0" encoding="UTF-8" standalone="no"?>
<!-- Generator: Adobe Illustrator 15.0.0, SVG Export Plug-In  -->
<svg xmlns:dc="http://purl.org/dc/elements/1.1/" xmlns:cc="http://creativecommons.org/ns#" xmlns:rdf="http://www.w3.org/1999/02/22-rdf-syntax-ns#" xmlns:svg="http://www.w3.org/2000/svg" xmlns="http://www.w3.org/2000/svg" xmlns:sodipodi="http://sodipodi.sourceforge.net/DTD/sodipodi-0.dtd" xmlns:inkscape="http://www.inkscape.org/namespaces/inkscape" version="1.1" x="0px" y="0px" width="42px" height="42px" viewBox="-0.013 -0.109 42 42" enable-background="new -0.013 -0.109 42 42" xml:space="preserve" id="svg14" sodipodi:docname="printer-light.svg" inkscape:version="0.92.5 (2060ec1f9f, 2020-04-08)"><metadata id="metadata18"><rdf:RDF><cc:Work rdf:about=""><dc:format>image/svg+xml</dc:format><dc:type rdf:resource="http://purl.org/dc/dcmitype/StillImage"/><dc:title/></cc:Work></rdf:RDF></metadata>
  <sodipodi:namedview pagecolor="#ffffff" bordercolor="#666666" borderopacity="1" objecttolerance="10" gridtolerance="10" guidetolerance="10" inkscape:pageopacity="0" inkscape:pageshadow="2" inkscape:window-width="1920" inkscape:window-height="1143" id="namedview16" showgrid="false" inkscape:zoom="5.6568545" inkscape:cx="-36.875452" inkscape:cy="54.830128" inkscape:window-x="1920" inkscape:window-y="25" inkscape:window-maximized="1" inkscape:current-layer="svg14" inkscape:pagecheckerboard="true"/>
  <defs id="defs2">
</defs>
  <path d="m 24.332,1.4 c -1.869,-1.867 -4.898,-1.867 -6.766,0 L 1.402,17.564 c -1.869,1.868 -1.869,4.898 0,6.766 l 16.164,16.164 c 1.868,1.869 4.897,1.869 6.766,0 L 40.496,24.33 c 1.867,-1.867 1.867,-4.897 0,-6.766 z" id="path4" inkscape:connector-curvature="0" style="fill:#123370"/>
  
  
  
  
<path id="path835" d="m 14.34825,28.64775 h -3.3 a 1.1,1.1 0 0 1 -1.1,-1.1 v -11 a 1.1,1.1 0 0 1 1.1,-1.1 h 3.3 V 11.047751 A 1.1,1.1 0 0 1 15.448249,9.94775 H 26.44825 a 1.1,1.1 0 0 1 1.1,1.100001 v 4.399999 h 3.299999 a 1.1,1.1 0 0 1 1.100001,1.1 v 11 a 1.1,1.1 0 0 1 -1.100001,1.1 H 27.54825 v 2.2 a 1.1,1.1 0 0 1 -1.1,1.1 H 15.448249 a 1.1,1.1 0 0 1 -1.099999,-1.1 z m 0,-2.2 v -1.1 a 1.1,1.1 0 0 1 1.099999,-1.1 H 26.44825 a 1.1,1.1 0 0 1 1.1,1.1 v 1.1 h 2.2 v -8.8 h -17.6 v 8.8 z m 2.2,-14.3 v 3.3 h 8.799999 v -3.3 z m 0,14.3 v 3.300001 h 8.799999 V 26.44775 Z m -3.3,-7.7 h 3.3 v 2.200001 h -3.3 z" inkscape:connector-curvature="0" style="fill:#ffffff;stroke-width:1.0999999;fill-opacity:1"/></svg>