<?xml version="1.0" encoding="utf-8"?>
<!-- Generator: Adobe Illustrator 15.0.0, SVG Export Plug-In . SVG Version: 6.00 Build 0)  -->
<!DOCTYPE svg PUBLIC "-//W3C//DTD SVG 1.1//EN" "http://www.w3.org/Graphics/SVG/1.1/DTD/svg11.dtd">
<svg version="1.1" id="Layer_1" xmlns="http://www.w3.org/2000/svg" xmlns:xlink="http://www.w3.org/1999/xlink" x="0px" y="0px"
	 width="41.9px" height="41.9px" viewBox="0 0 41.9 41.9" enable-background="new 0 0 41.9 41.9" xml:space="preserve">
<path fill="#053775" d="M24.458,1.367c-1.868-1.868-4.897-1.868-6.766,0L1.528,17.531c-1.869,1.868-1.869,4.898,0,6.766
	l16.164,16.164c1.868,1.869,4.897,1.869,6.766,0l16.164-16.164c1.868-1.867,1.868-4.897,0-6.766L24.458,1.367z"/>
<path fill="#ffffff" d="M31.552,15.57c-0.59,0.266-1.242,0.427-1.879,0.532c0.302-0.051,0.746-0.594,0.924-0.813
	c0.272-0.335,0.497-0.718,0.624-1.13c0.017-0.031,0.028-0.072-0.005-0.097c-0.04-0.016-0.067-0.008-0.099,0.008
	c-0.711,0.378-1.446,0.652-2.229,0.847c-0.064,0.016-0.112,0-0.153-0.04c-0.065-0.073-0.126-0.142-0.194-0.198
	c-0.329-0.277-0.682-0.495-1.08-0.656c-0.521-0.211-1.093-0.301-1.655-0.265c-0.547,0.036-1.085,0.188-1.569,0.44
	c-0.487,0.252-0.922,0.604-1.268,1.027c-0.357,0.438-0.622,0.955-0.757,1.504c-0.13,0.529-0.119,1.052-0.04,1.587
	c0.012,0.089,0.004,0.102-0.077,0.089c-3.06-0.451-5.596-1.539-7.655-3.866c-0.089-0.102-0.138-0.102-0.211,0.007
	c-0.9,1.341-0.464,3.494,0.662,4.553c0.15,0.141,0.305,0.282,0.471,0.411c-0.061,0.012-0.81-0.069-1.478-0.411
	c-0.089-0.056-0.134-0.024-0.142,0.076c-0.008,0.145,0.004,0.279,0.023,0.436c0.174,1.358,1.121,2.615,2.419,3.106
	c0.155,0.063,0.325,0.121,0.491,0.148c-0.296,0.064-0.6,0.11-1.449,0.044c-0.104-0.02-0.145,0.032-0.104,0.134
	c0.637,1.725,2.013,2.237,3.044,2.529c0.138,0.024,0.275,0.024,0.414,0.057c-0.008,0.013-0.016,0.013-0.024,0.023
	c-0.342,0.519-1.526,0.903-2.079,1.095c-1.004,0.348-2.097,0.505-3.157,0.4c-0.169-0.024-0.205-0.022-0.251,0
	c-0.047,0.029-0.007,0.069,0.049,0.113c0.215,0.141,0.434,0.266,0.656,0.387c0.675,0.354,1.377,0.636,2.111,0.838
	c3.793,1.039,8.065,0.275,10.913-2.533c2.237-2.205,3.021-5.246,3.021-8.292c0-0.119,0.141-0.185,0.226-0.247
	c0.582-0.435,1.051-0.953,1.485-1.533c0.097-0.131,0.098-0.246,0.098-0.294V15.57C31.628,15.521,31.627,15.536,31.552,15.57"/>
</svg>
