<?xml version="1.0" encoding="utf-8"?>
<!-- Generator: Adobe Illustrator 15.0.0, SVG Export Plug-In . SVG Version: 6.00 Build 0)  -->
<!DOCTYPE svg PUBLIC "-//W3C//DTD SVG 1.1//EN" "http://www.w3.org/Graphics/SVG/1.1/DTD/svg11.dtd">
<svg version="1.1" id="Layer_1" xmlns="http://www.w3.org/2000/svg" xmlns:xlink="http://www.w3.org/1999/xlink" x="0px" y="0px"
	 width="41.9px" height="41.9px" viewBox="0 0 41.9 41.9" enable-background="new 0 0 41.9 41.9" xml:space="preserve">
<path fill="#053775" d="M24.335,1.401c-1.869-1.868-4.898-1.868-6.766,0L1.405,17.565c-1.869,1.868-1.869,4.898,0,6.766
	l16.164,16.164c1.867,1.869,4.896,1.869,6.766,0l16.164-16.164c1.868-1.867,1.868-4.897,0-6.766L24.335,1.401z"/>
<path fill="#ffffff" d="M24.191,21.108l-4.694,2.322c-0.184,0.099-0.809-0.034-0.809-0.243v-4.767c0-0.213,0.63-0.346,0.813-0.24
	l4.494,2.445C24.185,20.732,24.382,21.005,24.191,21.108 M30.348,18.308c0-2.261-1.833-4.093-4.095-4.093H15.786
	c-2.261,0-4.094,1.832-4.094,4.093v4.871c0,2.261,1.833,4.094,4.094,4.094h10.467c2.262,0,4.095-1.833,4.095-4.094V18.308z"/>
</svg>
