<?xml version="1.0" encoding="utf-8"?>
<!-- Generator: Adobe Illustrator 27.0.0, SVG Export Plug-In . SVG Version: 6.00 Build 0)  -->
<svg version="1.1" id="Слой_1" xmlns="http://www.w3.org/2000/svg" xmlns:xlink="http://www.w3.org/1999/xlink" x="0px" y="0px"
	 viewBox="0 0 24 24" style="enable-background:new 0 0 24 24;" xml:space="preserve">
<style type="text/css">
	.st0{fill:none;}
	.st1{fill:#407FFF;}
</style>
<path class="st0" d="M0,0h24v24H0V0z"/>
<g>
	<g>
		<rect x="11.6" y="15.5" class="st1" width="2" height="5.5"/>
		<rect x="17.6" y="17.5" class="st1" width="2" height="3.5"/>
		<rect x="14.6" y="13" class="st1" width="2" height="8"/>
	</g>
</g>
<path d="M20.9,5.2H12L9.8,3H3.1C1.9,3,0.9,4,0.9,5.2v13.5c0,1.2,1,2.2,2.2,2.2h7.3v-2.2H3.1V5.2h5.7L11,7.5h9.8v5.3v5.9V21
	c1.2,0,2.2-1,2.2-2.2V7.5C23.1,6.3,22.1,5.2,20.9,5.2z"/>
</svg>
