<!--
Copyright (c) 2023 Contributors to the  Eclipse Foundation.
                   This program and the accompanying materials are made
                   available under the terms of the Eclipse Public License 2.0
which is available at https://www.eclipse.org/legal/epl-2.0/
SPDX-License-Identifier: EPL-2.0

Contributors: Smart City Jena

-->

<?xml version="1.0" encoding="utf-8"?>
<!-- Generator: Adobe Illustrator 27.0.0, SVG Export Plug-In . SVG Version: 6.00 Build 0)  -->
<svg version="1.1" id="Слой_1" xmlns="http://www.w3.org/2000/svg" xmlns:xlink="http://www.w3.org/1999/xlink" x="0px" y="0px"
	 viewBox="0 0 24 24" style="enable-background:new 0 0 24 24;" xml:space="preserve">
<style type="text/css">
	.st0{fill:none;}
	.st1{fill:#407FFF;}
</style>
<path class="st0" d="M0,0h24v24H0V0z"/>
<g>
	<g>
		<rect x="11.6" y="15.5" class="st1" width="2" height="5.5"/>
		<rect x="17.6" y="17.5" class="st1" width="2" height="3.5"/>
		<rect x="14.6" y="13" class="st1" width="2" height="8"/>
	</g>
</g>
<path d="M20.9,5.3H12L9.8,3H3.1C1.9,3,0.9,4,0.9,5.3v13.5c0,1.2,1,2.2,2.2,2.2h7.3v-2.2H3.1V7.5h17.8v9v2.3V21c1.2,0,2.2-1,2.2-2.2
	V7.5C23.1,6.3,22.1,5.3,20.9,5.3z"/>
</svg>
