<svg width="64" height="64" viewBox="0 0 64 64" fill="none" xmlns="http://www.w3.org/2000/svg">
  <rect x="26" y="8" width="12" height="12"  class="stSecondary" />
  <g class="stPrimary">
    <rect x="17" y="26" width="12" height="12" />
    <rect x="8" y="44" width="12" height="12" />
    <rect x="35" y="26" width="12" height="12" />
    <rect x="26" y="44" width="12" height="12" />
    <rect x="44" y="44" width="12" height="12" />
    <path d="M49 32L53 28L54.4 29.4L52.8 31L59 31L59 15L40 15L40 13L59 13C60.1 13 61 13.9 61 15L61 31C61 32.1 60.1 33 59 33L52.8 33L54.4 34.6L53 36L49 32Z" />
  </g>
</svg>
