<?xml version="1.0" encoding="utf-8"?>
<!-- Generator: Adobe Illustrator 27.0.0, SVG Export Plug-In . SVG Version: 6.00 Build 0)  -->
<svg version="1.1" id="Слой_1" xmlns="http://www.w3.org/2000/svg" xmlns:xlink="http://www.w3.org/1999/xlink" x="0px" y="0px"
	 viewBox="0 0 16 16" style="enable-background:new 0 0 16 16;" xml:space="preserve">
<style type="text/css">
	.st0{fill:none;}
	.st1{fill:#447EFF;}
</style>
<path class="st0" d="M0,0h16v16H0V0z"/>
<g>
	<rect x="2.1" y="10.5" class="st1" width="3" height="3"/>
	<rect x="6.1" y="10.5" class="st1" width="3" height="3"/>
	<rect x="8.1" y="6.5" class="st1" width="3" height="3"/>
	<rect x="4.1" y="6.5" class="st1" width="3" height="3"/>
	<rect x="10.1" y="10.5" class="st1" width="3" height="3"/>
</g>
<rect x="6.1" y="2.5" width="3" height="3"/>
<g>
	<path d="M14.6,4.4c0-0.3-0.2-0.5-0.5-0.5h-3.8v0.5h3.8"/>
	<path d="M14.1,4.4v3.1h-1.5L13,7.1l-0.4-0.4l-1,1l1,1L13,8.3L12.5,8H14c0.3,0,0.5-0.2,0.5-0.5V4.4"/>
</g>
</svg>
