<?xml version="1.0" encoding="utf-8"?>
<!-- Generator: Adobe Illustrator 27.3.0, SVG Export Plug-In . SVG Version: 6.00 Build 0)  -->
<svg version="1.1" id="Ebene_1" xmlns="http://www.w3.org/2000/svg" xmlns:xlink="http://www.w3.org/1999/xlink" x="0px" y="0px"
	 viewBox="95 160 290 300" style="enable-background:new 0 0 841.89 595.28;" xml:space="preserve">
<style type="text/css">
	.st0{fill:#20346B;}
	.st1{fill:#F49423;}
	.st2{fill:url(#SVGID_1_);}
</style>

<linearGradient id="SVGID_1_" gradientUnits="userSpaceOnUse" x1="242.6852" y1="437.9844" x2="242.6852" y2="176.5281">
	<stop  offset="0.0305" style="stop-color:#20346B"/>
	<stop  offset="0.9235" style="stop-color:#F49423"/>
</linearGradient>
<path class="st2" d="M222.8,381.61l-25.84,25.84l33.35,33.35c6.83,6.83,17.91,6.83,24.75,0l33.35-33.35l-25.84-25.84
	C251.59,370.63,233.78,370.63,222.8,381.61 M222.8,322.56l-55.37,55.37l21.09,21.09l34.28-34.28c10.98-10.98,28.79-10.98,39.77,0
	l34.28,34.28l21.09-21.09l-55.37-55.37C251.59,311.58,233.78,311.58,222.8,322.56 M222.8,256.95l-88.17,88.17L159,369.5l63.8-63.8
	c10.98-10.98,28.79-10.98,39.77,0l63.8,63.8l24.37-24.37l-88.17-88.17C251.59,245.97,233.78,245.97,222.8,256.95 M375.5,295.61
	L255.06,175.17c-3.42-3.42-7.9-5.13-12.38-5.13s-8.96,1.71-12.37,5.13L109.87,295.61c-6.83,6.83-6.83,17.91,0,24.75l16.33,16.33
	l96.61-96.61c10.98-10.98,28.79-10.98,39.77,0l96.61,96.61l16.33-16.33C382.34,313.53,382.34,302.45,375.5,295.61"/>
</svg>
