<?xml version="1.0" encoding="UTF-8" standalone="no"?>
<!-- Generator: Adobe Illustrator 27.3.0, SVG Export Plug-In . SVG Version: 6.00 Build 0)  -->

<svg
   version="1.1"
   id="Ebene_1"
   x="0px"
   y="0px"
   viewBox="0 0 683.39251 283.08248"
   xml:space="preserve"
   sodipodi:docname="daanse_final.svg"
   width="683.39252"
   height="283.08249"
   inkscape:version="1.1.2 (0a00cf5339, 2022-02-04)"
   xmlns:inkscape="http://www.inkscape.org/namespaces/inkscape"
   xmlns:sodipodi="http://sodipodi.sourceforge.net/DTD/sodipodi-0.dtd"
   xmlns="http://www.w3.org/2000/svg"
   xmlns:svg="http://www.w3.org/2000/svg"><defs
   id="defs70" /><sodipodi:namedview
   id="namedview68"
   pagecolor="#ffffff"
   bordercolor="#666666"
   borderopacity="1.0"
   inkscape:pageshadow="2"
   inkscape:pageopacity="0.0"
   inkscape:pagecheckerboard="0"
   showgrid="false"
   fit-margin-top="7.2"
   inkscape:zoom="0.70891006"
   inkscape:cx="109.32275"
   inkscape:cy="103.68029"
   inkscape:window-width="1920"
   inkscape:window-height="1016"
   inkscape:window-x="0"
   inkscape:window-y="27"
   inkscape:window-maximized="1"
   inkscape:current-layer="Ebene_1"
   fit-margin-left="-1.3"
   fit-margin-right="0"
   fit-margin-bottom="0" />
<style
   type="text/css"
   id="style2">
	.st0{fill:#20346B;}
	.st1{fill:#F49423;}
	.st2{fill:url(#SVGID_1_);}
</style>
<path
   class="st0"
   d="m 682.4225,202.44 c 0,-1.61 -0.61,-3.06 -1.65,-4.11 -0.85,-0.81 -1.69,-1.25 -4.67,-2.42 -2.22,-0.85 -2.66,-1.25 -2.66,-2.34 0,-1.33 0.93,-2.06 2.58,-2.06 1.13,0 2.54,0.36 4.07,1.05 0.12,0.04 0.24,0.08 0.32,0.08 0.16,0 0.28,-0.12 0.4,-0.36 l 1.01,-2.3 c 0.08,-0.16 0.12,-0.32 0.12,-0.44 0,-0.77 -3.63,-1.85 -6.16,-1.85 -4.19,0 -7.17,2.7 -7.17,6.57 0,1.57 0.56,2.94 1.61,3.95 0.72,0.69 1.61,1.21 4.19,2.18 2.62,1.01 3.1,1.41 3.1,2.54 0,1.25 -0.93,2.09 -2.34,2.09 -1.53,0 -3.34,-0.56 -5.48,-1.73 -0.16,-0.08 -0.28,-0.12 -0.36,-0.12 -0.16,0 -0.28,0.12 -0.4,0.4 l -0.93,2.46 c -0.08,0.24 -0.12,0.32 -0.12,0.48 0,0.28 0.16,0.4 0.89,0.77 2.1,1.09 4.59,1.69 6.85,1.69 2.13,0 3.75,-0.6 4.96,-1.85 1.15,-1.22 1.84,-2.95 1.84,-4.68"
   id="path4" />
<path
   class="st0"
   d="m 665.3325,198.69 c 0,-7.33 -2.66,-11 -7.98,-11 -5.32,0 -8.82,4.31 -8.82,10.8 0,3.67 1.09,6.73 3.02,8.5 1.41,1.29 3.43,1.97 6,1.97 1.97,0 3.79,-0.36 5.56,-1.13 1.33,-0.56 1.65,-0.81 1.65,-1.25 0,-0.16 0,-0.2 -0.12,-0.44 l -1.01,-2.42 c -0.12,-0.24 -0.24,-0.36 -0.44,-0.36 -0.12,0 -0.32,0.04 -0.52,0.16 -1.53,0.81 -3.1,1.25 -4.59,1.25 -2.98,0 -4.39,-1.61 -4.47,-5.08 h 10.84 c 0.72,0.01 0.88,-0.2 0.88,-1 z m -11.64,-2.74 c 0.36,-3.3 1.29,-4.59 3.34,-4.59 2.05,0 2.86,1.25 2.94,4.59 z"
   id="path6" />
<path
   class="st0"
   d="m 647.1625,189.98 c 0,-1.01 -3.26,-2.29 -5.72,-2.29 -5.76,0 -9.31,4.19 -9.31,11.04 0,6.49 3.18,10.23 8.66,10.23 2.74,0 5.84,-1.17 5.84,-2.18 0,-0.16 0,-0.16 -0.12,-0.48 l -0.97,-2.46 c -0.08,-0.16 -0.2,-0.28 -0.32,-0.28 -0.12,0 -0.28,0.08 -0.44,0.2 -1.17,0.77 -2.18,1.13 -3.3,1.13 -2.78,0 -4.03,-1.97 -4.03,-6.37 0,-4.67 1.25,-6.77 3.99,-6.77 1.21,0 1.93,0.28 3.43,1.37 0.16,0.12 0.28,0.16 0.4,0.16 0.12,0 0.28,-0.12 0.36,-0.28 l 1.41,-2.58 c 0.08,-0.15 0.12,-0.31 0.12,-0.44"
   id="path8" />
<path
   class="st0"
   d="m 627.7825,207.59 v -18.53 c 0,-0.6 -0.08,-0.69 -0.69,-0.69 h -7.49 c -0.61,0 -0.69,0.08 -0.69,0.69 v 2.38 c 0,0.61 0.08,0.69 0.69,0.69 h 3.06 v 15.47 c 0,0.6 0.08,0.68 0.68,0.68 h 3.75 c 0.61,0 0.69,-0.08 0.69,-0.69"
   id="path10" />
<path
   class="st0"
   d="m 628.3425,182.45 c 0,-1.77 -1.45,-3.26 -3.22,-3.26 -1.81,0 -3.3,1.45 -3.3,3.22 0,1.85 1.45,3.3 3.26,3.3 1.81,0 3.26,-1.45 3.26,-3.26"
   id="path12" />
<path
   class="st0"
   d="m 618.0725,188.94 c 0,-0.24 -0.16,-0.36 -0.6,-0.4 l -3.34,-0.4 c -0.16,-0.04 -0.32,-0.04 -0.32,-0.04 -0.24,0 -0.36,0.12 -0.48,0.56 l -2.82,9.23 c -0.44,1.45 -0.97,3.67 -1.41,5.8 -0.48,-2.42 -0.89,-4.27 -1.33,-5.8 l -2.58,-9.23 c -0.12,-0.44 -0.24,-0.56 -0.48,-0.56 l -0.32,0.04 -3.95,0.4 c -0.48,0.04 -0.64,0.16 -0.64,0.4 0,0.12 0.04,0.24 0.12,0.44 l 6.57,19.14 c 0.16,0.48 0.24,0.52 0.77,0.52 h 3.3 c 0.52,0 0.6,-0.04 0.76,-0.52 l 6.69,-19.14 c 0.02,-0.16 0.06,-0.32 0.06,-0.44"
   id="path14" />
<path
   class="st0"
   d="m 599.2925,188.57 c 0,-0.44 -1.09,-0.88 -2.3,-0.88 -1.37,0 -2.66,0.56 -3.67,1.57 -0.4,0.4 -0.52,0.61 -1.37,1.57 -0.44,-1.94 -1.05,-3.14 -1.53,-3.14 -0.16,0 -0.16,0 -0.48,0.12 l -3.26,1.17 c -0.24,0.08 -0.4,0.24 -0.4,0.4 0,0.12 0.04,0.24 0.08,0.36 0.97,2.18 1.21,3.3 1.21,5.6 v 12.25 c 0,0.6 0.08,0.68 0.68,0.68 h 3.75 c 0.6,0 0.69,-0.08 0.69,-0.68 v -13.42 c 1.21,-1.33 2.21,-1.93 3.06,-1.93 0.48,0 1.05,0.12 1.61,0.32 0.12,0.04 0.2,0.08 0.28,0.08 0.12,0 0.24,-0.12 0.32,-0.36 l 1.25,-3.26 c 0.04,-0.16 0.08,-0.33 0.08,-0.45"
   id="path16" />
<path
   class="st0"
   d="m 583.3325,198.69 c 0,-7.33 -2.66,-11 -7.98,-11 -5.32,0 -8.82,4.31 -8.82,10.8 0,3.67 1.09,6.73 3.02,8.5 1.41,1.29 3.43,1.97 6,1.97 1.97,0 3.79,-0.36 5.56,-1.13 1.33,-0.56 1.65,-0.81 1.65,-1.25 0,-0.16 0,-0.2 -0.12,-0.44 l -1.01,-2.42 c -0.12,-0.24 -0.24,-0.36 -0.44,-0.36 -0.12,0 -0.32,0.04 -0.52,0.16 -1.53,0.81 -3.1,1.25 -4.59,1.25 -2.98,0 -4.39,-1.61 -4.47,-5.08 h 10.84 c 0.72,0.01 0.88,-0.2 0.88,-1 z m -11.64,-2.74 c 0.36,-3.3 1.29,-4.59 3.34,-4.59 2.05,0 2.86,1.25 2.94,4.59 z"
   id="path18" />
<path
   class="st0"
   d="m 563.9525,200.46 c 0,-3.75 -1.73,-6.16 -5.88,-8.26 -3.55,-1.77 -3.67,-1.85 -4.23,-2.22 -1.09,-0.72 -1.57,-1.53 -1.57,-2.54 0,-1.81 1.41,-2.94 3.67,-2.94 1.29,0 2.7,0.36 4.03,1.05 1.45,0.72 1.45,0.72 1.57,0.72 0.12,0 0.28,-0.12 0.36,-0.28 l 1.45,-3.06 c 0.12,-0.24 0.12,-0.24 0.12,-0.32 0,-1.05 -4.51,-2.54 -7.7,-2.54 -5.4,0 -8.82,3.02 -8.82,7.78 0,3.59 1.45,5.4 6.29,7.82 3.38,1.69 3.91,2.02 4.59,2.78 0.52,0.56 0.85,1.53 0.85,2.46 0,2.14 -1.33,3.34 -3.62,3.34 -1.77,0 -3.75,-0.64 -6.17,-1.97 -0.16,-0.08 -0.28,-0.12 -0.36,-0.12 -0.16,0 -0.28,0.12 -0.36,0.36 l -1.33,3.47 c -0.04,0.16 -0.08,0.36 -0.08,0.44 0,0.93 5.16,2.42 8.42,2.42 5.23,-0.01 8.77,-3.39 8.77,-8.39"
   id="path20" />
<path
   class="st0"
   d="m 536.1525,202.44 c 0,-1.61 -0.6,-3.06 -1.65,-4.11 -0.85,-0.81 -1.69,-1.25 -4.68,-2.42 -2.21,-0.85 -2.66,-1.25 -2.66,-2.34 0,-1.33 0.93,-2.06 2.58,-2.06 1.13,0 2.54,0.36 4.07,1.05 0.12,0.04 0.24,0.08 0.32,0.08 0.16,0 0.28,-0.12 0.4,-0.36 l 1.01,-2.3 c 0.08,-0.16 0.12,-0.32 0.12,-0.44 0,-0.77 -3.63,-1.85 -6.17,-1.85 -4.19,0 -7.17,2.7 -7.17,6.57 0,1.57 0.56,2.94 1.61,3.95 0.73,0.69 1.61,1.21 4.19,2.18 2.62,1.01 3.1,1.41 3.1,2.54 0,1.25 -0.93,2.09 -2.34,2.09 -1.53,0 -3.34,-0.56 -5.48,-1.73 -0.16,-0.08 -0.28,-0.12 -0.36,-0.12 -0.16,0 -0.28,0.12 -0.4,0.4 l -0.93,2.46 c -0.08,0.24 -0.12,0.32 -0.12,0.48 0,0.28 0.16,0.4 0.89,0.77 2.1,1.09 4.59,1.69 6.85,1.69 2.13,0 3.75,-0.6 4.96,-1.85 1.18,-1.22 1.86,-2.95 1.86,-4.68"
   id="path22" />
<path
   class="st0"
   d="m 517.2925,207.59 v -18.53 c 0,-0.6 -0.08,-0.69 -0.69,-0.69 h -7.49 c -0.61,0 -0.69,0.08 -0.69,0.69 v 2.38 c 0,0.61 0.08,0.69 0.69,0.69 h 3.06 v 15.47 c 0,0.6 0.08,0.68 0.68,0.68 h 3.75 c 0.61,0 0.69,-0.08 0.69,-0.69"
   id="path24" />
<path
   class="st0"
   d="m 517.8625,182.45 c 0,-1.77 -1.45,-3.26 -3.22,-3.26 -1.81,0 -3.3,1.45 -3.3,3.22 0,1.85 1.45,3.3 3.27,3.3 1.8,0 3.25,-1.45 3.25,-3.26"
   id="path26" />
<path
   class="st0"
   d="m 507.0625,202.44 c 0,-1.61 -0.61,-3.06 -1.65,-4.11 -0.85,-0.81 -1.69,-1.25 -4.67,-2.42 -2.22,-0.85 -2.66,-1.25 -2.66,-2.34 0,-1.33 0.93,-2.06 2.58,-2.06 1.13,0 2.54,0.36 4.07,1.05 0.12,0.04 0.24,0.08 0.32,0.08 0.16,0 0.28,-0.12 0.4,-0.36 l 1.01,-2.3 c 0.08,-0.16 0.12,-0.32 0.12,-0.44 0,-0.77 -3.62,-1.85 -6.16,-1.85 -4.19,0 -7.17,2.7 -7.17,6.57 0,1.57 0.56,2.94 1.61,3.95 0.72,0.69 1.61,1.21 4.19,2.18 2.62,1.01 3.1,1.41 3.1,2.54 0,1.25 -0.93,2.09 -2.34,2.09 -1.53,0 -3.34,-0.56 -5.48,-1.73 -0.16,-0.08 -0.28,-0.12 -0.36,-0.12 -0.16,0 -0.28,0.12 -0.4,0.4 l -0.93,2.46 c -0.08,0.24 -0.12,0.32 -0.12,0.48 0,0.28 0.16,0.4 0.89,0.77 2.1,1.09 4.59,1.69 6.85,1.69 2.14,0 3.75,-0.6 4.96,-1.85 1.15,-1.22 1.84,-2.95 1.84,-4.68"
   id="path28" />
<path
   class="st0"
   d="m 491.4725,188.94 c 0,-0.24 -0.16,-0.36 -0.64,-0.4 l -3.54,-0.4 c -0.16,-0.04 -0.28,-0.04 -0.32,-0.04 -0.24,0 -0.32,0.12 -0.44,0.6 l -2.26,9.87 -0.4,1.73 c -0.12,0.52 -0.24,1.17 -0.36,1.85 l -0.61,3.38 c -0.48,-2.5 -0.81,-4.15 -1.57,-6.97 l -2.66,-9.91 c -0.12,-0.44 -0.24,-0.56 -0.48,-0.56 h -0.28 l -4.11,0.44 c -0.48,0.04 -0.64,0.16 -0.64,0.4 0,0.12 0.04,0.16 0.12,0.44 l 6.33,18.37 c 0.16,0.48 0.24,0.52 0.77,0.52 h 1.69 l -0.48,1.69 c -0.68,2.34 -1.45,3.06 -3.14,3.06 -0.93,0 -1.85,-0.28 -3.1,-0.89 -0.12,-0.08 -0.24,-0.12 -0.32,-0.12 -0.12,0 -0.28,0.12 -0.36,0.28 l -1.25,2.58 c -0.16,0.32 -0.16,0.32 -0.16,0.44 0,0.8 3.26,1.89 5.52,1.89 2.14,0 3.67,-0.64 4.88,-2.09 1.17,-1.37 1.69,-2.66 3.06,-8.38 0.24,-0.93 0.44,-1.85 0.69,-2.66 l 4.03,-14.75 c 0.03,-0.25 0.03,-0.25 0.03,-0.37"
   id="path30" />
<path
   class="st0"
   d="m 473.7825,207.84 c 0,-0.04 0,-0.08 -0.04,-0.16 l -0.04,-0.16 -0.8,-3.3 c -0.04,-0.16 -0.16,-0.24 -0.32,-0.24 -0.04,0 -0.16,0 -0.28,0.04 -0.52,0.16 -0.88,0.24 -1.33,0.24 -0.56,0 -0.85,-0.24 -1.01,-0.8 -0.08,-0.32 -0.08,-0.4 -0.08,-2.66 v -20.99 c 0,-0.48 -0.12,-0.69 -0.4,-0.69 -0.08,0 -0.08,0 -0.48,0.08 l -3.63,0.72 c -0.4,0.08 -0.6,0.32 -0.6,0.77 v 20.47 c 0,3.51 0.04,3.99 0.36,4.92 0.64,1.89 2.26,2.9 4.59,2.9 1.92,-0.02 4.06,-0.62 4.06,-1.14"
   id="path32" />
<path
   class="st0"
   d="m 460.2825,206.71 c -0.69,-1.41 -0.93,-2.58 -0.93,-4.35 v -8.22 c 0,-1.53 -0.16,-2.5 -0.56,-3.34 -0.93,-2.05 -3.1,-3.1 -6.29,-3.1 -3.22,0 -6.89,1.01 -6.89,1.85 0,0.12 0.04,0.32 0.08,0.44 l 0.85,2.42 c 0.08,0.28 0.2,0.4 0.4,0.4 0.12,0 0.28,-0.04 0.44,-0.12 1.77,-0.69 3.3,-1.05 4.51,-1.05 2.01,0 2.66,0.73 2.66,3.02 v 1.25 c -2.21,0.04 -3.46,0.16 -4.51,0.36 -4.07,0.8 -6,2.9 -6,6.49 0,3.71 2.34,6.08 6.04,6.08 2.1,0 3.55,-0.64 5.16,-2.3 0.44,1.61 0.85,2.38 1.21,2.38 0.12,0 0.36,-0.04 0.48,-0.12 l 3.14,-1.25 c 0.2,-0.08 0.32,-0.24 0.32,-0.4 0.01,-0.12 -0.03,-0.28 -0.11,-0.44 z m -5.72,-3.02 c -0.97,1.05 -1.97,1.57 -3.06,1.57 -1.45,0 -2.58,-1.21 -2.58,-2.78 0,-2.34 1.61,-3.22 5.64,-3.22 z"
   id="path34" />
<path
   class="st0"
   d="m 429.1725,207.59 v -14.14 c 1.41,-1.21 2.34,-1.65 3.5,-1.65 1.61,0 2.3,1.01 2.3,3.38 v 12.41 c 0,0.6 0.08,0.68 0.69,0.68 h 3.75 c 0.6,0 0.68,-0.08 0.68,-0.68 v -13.54 c 0,-4.39 -1.61,-6.37 -5.2,-6.37 -2.3,0 -4.03,0.72 -6.04,2.58 -0.44,-1.77 -0.97,-2.78 -1.45,-2.78 -0.08,0 -0.28,0.04 -0.4,0.08 l -3.59,1.33 c -0.2,0.08 -0.32,0.24 -0.32,0.36 0,0.12 0.04,0.24 0.12,0.4 0.56,1.21 0.85,2.66 0.85,4.39 v 13.54 c 0,0.6 0.08,0.68 0.68,0.68 h 3.75 c 0.6,0.02 0.68,-0.06 0.68,-0.67"
   id="path36" />
<path
   class="st0"
   d="m 420.7925,207.31 -7.94,-25.99 c -0.2,-0.64 -0.24,-0.69 -0.88,-0.69 h -4.19 c -0.64,0 -0.69,0.04 -0.89,0.69 l -7.94,25.99 c -0.08,0.32 -0.12,0.36 -0.12,0.53 0,0.32 0.2,0.44 0.81,0.44 h 3.99 c 0.69,0 0.73,-0.04 0.89,-0.68 l 1.73,-6.61 h 6.81 l 1.73,6.61 c 0.16,0.64 0.24,0.68 0.93,0.68 h 4.39 c 0.6,0 0.8,-0.12 0.8,-0.44 0,-0.12 -0.04,-0.25 -0.12,-0.53 z m -13.94,-10.11 1.61,-6.89 c 0.52,-2.18 0.69,-3.1 1.05,-5.44 0.52,3.06 0.64,3.79 1.01,5.44 l 1.49,6.89 z"
   id="path38" />
<path
   class="st0"
   d="m 388.5125,206.71 c -0.69,-1.41 -0.93,-2.58 -0.93,-4.35 v -8.22 c 0,-1.53 -0.16,-2.5 -0.56,-3.34 -0.93,-2.05 -3.1,-3.1 -6.29,-3.1 -3.22,0 -6.89,1.01 -6.89,1.85 0,0.12 0.04,0.32 0.08,0.44 l 0.85,2.42 c 0.08,0.28 0.2,0.4 0.4,0.4 0.12,0 0.28,-0.04 0.44,-0.12 1.77,-0.69 3.3,-1.05 4.51,-1.05 2.02,0 2.66,0.73 2.66,3.02 v 1.25 c -2.22,0.04 -3.46,0.16 -4.51,0.36 -4.07,0.8 -6,2.9 -6,6.49 0,3.71 2.34,6.08 6.05,6.08 2.1,0 3.54,-0.64 5.16,-2.3 0.44,1.61 0.85,2.38 1.21,2.38 0.12,0 0.36,-0.04 0.48,-0.12 l 3.14,-1.25 c 0.2,-0.08 0.32,-0.24 0.32,-0.4 0.01,-0.12 -0.03,-0.28 -0.12,-0.44 z m -5.72,-3.02 c -0.97,1.05 -1.97,1.57 -3.06,1.57 -1.45,0 -2.58,-1.21 -2.58,-2.78 0,-2.34 1.61,-3.22 5.64,-3.22 z"
   id="path40" />
<path
   class="st0"
   d="m 370.7925,207.39 c 0,-0.12 0,-0.16 -0.08,-0.44 l -0.64,-2.82 c -0.08,-0.24 -0.2,-0.4 -0.4,-0.4 -0.12,0 -0.24,0.04 -0.36,0.08 -1.49,0.6 -1.85,0.68 -2.66,0.68 -1.21,0 -1.49,-0.44 -1.49,-2.58 v -9.79 h 3.99 c 0.48,0 0.61,-0.12 0.73,-0.61 l 0.52,-2.38 c 0.04,-0.12 0.04,-0.24 0.04,-0.36 0,-0.32 -0.16,-0.4 -0.68,-0.4 h -4.59 v -5.68 c 0,-0.48 -0.12,-0.64 -0.4,-0.64 h -0.36 l -3.71,0.53 c -0.56,0.08 -0.64,0.16 -0.64,0.72 v 5.08 h -2.81 c -0.6,0 -0.68,0.08 -0.68,0.69 v 2.38 c 0,0.61 0.08,0.69 0.68,0.69 h 2.78 v 10.52 c 0,2.26 0.2,3.26 0.89,4.27 0.93,1.37 2.46,2.05 4.55,2.05 1.33,0 2.7,-0.24 4.07,-0.69 1,-0.33 1.25,-0.49 1.25,-0.9"
   id="path42" />
<path
   class="st0"
   d="m 354.1925,206.71 c -0.69,-1.41 -0.93,-2.58 -0.93,-4.35 v -8.22 c 0,-1.53 -0.16,-2.5 -0.56,-3.34 -0.93,-2.05 -3.1,-3.1 -6.29,-3.1 -3.22,0 -6.89,1.01 -6.89,1.85 0,0.12 0.04,0.32 0.08,0.44 l 0.85,2.42 c 0.08,0.28 0.2,0.4 0.4,0.4 0.12,0 0.28,-0.04 0.44,-0.12 1.77,-0.69 3.3,-1.05 4.51,-1.05 2.01,0 2.66,0.73 2.66,3.02 v 1.25 c -2.21,0.04 -3.46,0.16 -4.51,0.36 -4.07,0.8 -6,2.9 -6,6.49 0,3.71 2.34,6.08 6.04,6.08 2.1,0 3.55,-0.64 5.16,-2.3 0.44,1.61 0.85,2.38 1.21,2.38 0.12,0 0.36,-0.04 0.48,-0.12 l 3.14,-1.25 c 0.2,-0.08 0.32,-0.24 0.32,-0.4 0.01,-0.12 -0.03,-0.28 -0.11,-0.44 z m -5.73,-3.02 c -0.97,1.05 -1.97,1.57 -3.06,1.57 -1.45,0 -2.58,-1.21 -2.58,-2.78 0,-2.34 1.61,-3.22 5.64,-3.22 z"
   id="path44" />
<path
   class="st0"
   d="m 327.5125,180.88 c -1.09,-0.2 -1.45,-0.24 -4.19,-0.24 h -6.33 c -0.72,0 -0.85,0.12 -0.85,0.85 v 25.95 c 0,0.73 0.12,0.85 0.85,0.85 h 6.33 c 3.83,0 4.96,-0.2 6.57,-1.01 3.46,-1.77 5.12,-5.92 5.12,-12.77 0,-8.31 -2.38,-12.66 -7.5,-13.63 z m -0.24,21.96 c -0.85,0.77 -2.01,1.05 -4.19,1.05 h -1.41 v -18.86 h 1.41 c 1.93,0 2.66,0.16 3.59,0.81 1.81,1.21 2.54,3.71 2.54,8.9 -0.01,4.51 -0.57,6.89 -1.94,8.1 z"
   id="path46" />
<path
   class="st1"
   d="m 683.3925,87.47 c 0,-0.89 -0.56,-1.22 -2.23,-1.22 h -37.17 c -2.12,0 -2.34,0.22 -2.34,2.34 v 71.67 c 0,2.12 0.22,2.34 2.34,2.34 h 36.28 c 2.12,0 2.34,-0.22 2.34,-2.34 v -7.46 c 0,-2 -0.34,-2.34 -2.34,-2.34 h -23.37 v -21.7 h 18.59 c 2.01,0 2.34,-0.33 2.34,-2.34 v -7.46 c 0,-2 -0.33,-2.34 -2.34,-2.34 h -18.59 V 98.37 h 21.59 c 1.56,0 2,-0.45 2.45,-1.89 l 2.23,-7.57 c 0.11,-0.55 0.22,-1.1 0.22,-1.44"
   id="path48" />
<path
   class="st1"
   d="m 627.2925,141 c 0,-10.35 -4.78,-17.03 -16.25,-22.81 -9.79,-4.9 -10.13,-5.12 -11.69,-6.12 -3,-2 -4.34,-4.23 -4.34,-7.01 0,-5.01 3.9,-8.12 10.13,-8.12 3.56,0 7.46,1 11.13,2.89 4.01,2 4.01,2 4.34,2 0.33,0 0.78,-0.33 1,-0.78 l 4.01,-8.46 c 0.34,-0.67 0.34,-0.67 0.34,-0.89 0,-2.89 -12.46,-7.01 -21.26,-7.01 -14.91,0 -24.37,8.35 -24.37,21.48 0,9.9 4.01,14.91 17.36,21.59 9.35,4.67 10.79,5.57 12.69,7.68 1.45,1.56 2.34,4.23 2.34,6.79 0,5.9 -3.67,9.24 -10.02,9.24 -4.9,0 -10.35,-1.78 -17.03,-5.45 -0.45,-0.22 -0.78,-0.33 -1,-0.33 -0.45,0 -0.78,0.33 -1,1 l -3.67,9.57 c -0.11,0.45 -0.22,1 -0.22,1.22 0,2.56 14.24,6.68 23.26,6.68 14.46,-0.01 24.25,-9.36 24.25,-23.16"
   id="path50" />
<path
   class="st1"
   d="M 563.0725,160.26 V 88.59 c 0,-2.12 -0.22,-2.34 -2.34,-2.34 h -8.35 c -2,0 -2.34,0.34 -2.34,2.34 v 35.39 c 0,4.23 0,5.56 0.22,14.02 -1.89,-5.79 -4.45,-12.24 -7.12,-17.14 l -17.58,-32.72 c -1,-1.78 -1.11,-1.89 -3.23,-1.89 h -8.68 c -2.11,0 -2.34,0.22 -2.34,2.34 v 71.67 c 0,2.12 0.22,2.34 2.34,2.34 h 8.35 c 2,0 2.34,-0.34 2.34,-2.34 V 122.2 c 0,-5.79 0,-5.79 -0.33,-13.58 1.89,5.34 3.45,8.9 7.12,15.8 l 19.14,36.06 c 1,1.89 1.34,2.12 3.34,2.12 h 7.12 c 2.12,-0.01 2.34,-0.23 2.34,-2.34"
   id="path52" />
<path
   class="st1"
   d="m 500.9625,159.92 -21.92,-71.78 c -0.56,-1.78 -0.67,-1.89 -2.45,-1.89 h -11.57 c -1.78,0 -1.89,0.11 -2.45,1.89 l -21.92,71.78 c -0.22,0.89 -0.33,1 -0.33,1.45 0,0.89 0.56,1.22 2.23,1.22 h 11.02 c 1.89,0 2,-0.11 2.45,-1.89 l 4.79,-18.25 h 18.81 l 4.78,18.25 c 0.45,1.78 0.67,1.89 2.56,1.89 h 12.13 c 1.67,0 2.23,-0.34 2.23,-1.22 -0.03,-0.34 -0.14,-0.67 -0.36,-1.45 z m -38.51,-27.93 4.45,-19.03 c 1.45,-6.01 1.89,-8.57 2.89,-15.03 1.45,8.46 1.78,10.46 2.78,15.03 l 4.12,19.03 z"
   id="path54" />
<path
   class="st1"
   d="m 435.4025,159.92 -21.92,-71.78 c -0.56,-1.78 -0.67,-1.89 -2.45,-1.89 h -11.58 c -1.78,0 -1.89,0.11 -2.45,1.89 l -21.92,71.78 c -0.22,0.89 -0.34,1 -0.34,1.45 0,0.89 0.56,1.22 2.23,1.22 h 11.02 c 1.89,0 2,-0.11 2.45,-1.89 l 4.78,-18.25 h 18.81 l 4.79,18.25 c 0.45,1.78 0.67,1.89 2.56,1.89 h 12.13 c 1.67,0 2.23,-0.34 2.23,-1.22 -0.01,-0.34 -0.12,-0.67 -0.34,-1.45 z m -38.51,-27.93 4.45,-19.03 c 1.45,-6.01 1.89,-8.57 2.89,-15.03 1.45,8.46 1.78,10.46 2.78,15.03 l 4.12,19.03 z"
   id="path56" />
<path
   class="st1"
   d="m 348.8125,86.92 c -3,-0.56 -4.01,-0.67 -11.57,-0.67 h -17.47 c -2,0 -2.34,0.34 -2.34,2.34 v 71.67 c 0,2 0.33,2.34 2.34,2.34 h 17.47 c 10.57,0 13.69,-0.56 18.14,-2.78 9.57,-4.9 14.13,-16.36 14.13,-35.28 0,-22.93 -6.57,-34.95 -20.7,-37.62 z m -0.67,60.65 c -2.34,2.12 -5.57,2.89 -11.58,2.89 h -3.9 V 98.38 h 3.9 c 5.34,0 7.35,0.45 9.91,2.23 5.01,3.34 7.01,10.24 7.01,24.6 0,12.45 -1.56,19.02 -5.34,22.36 z"
   id="path58" />
<linearGradient
   id="SVGID_1_"
   gradientUnits="userSpaceOnUse"
   x1="242.6852"
   y1="437.98441"
   x2="242.6852"
   y2="176.52811"
   gradientTransform="translate(-104.7475,-162.84)">
	<stop
   offset="0.0305"
   style="stop-color:#20346B"
   id="stop60" />
	<stop
   offset="0.9235"
   style="stop-color:#F49423"
   id="stop62" />
</linearGradient>
<path
   class="st2"
   d="m 118.0525,218.77 -25.84,25.84 33.35,33.35 c 6.83,6.83 17.91,6.83 24.75,0 l 33.35,-33.35 -25.84,-25.84 c -10.98,-10.98 -28.79,-10.98 -39.77,0 m 0,-59.05 -55.37,55.37 21.09,21.09 34.28,-34.28 c 10.98,-10.98 28.79,-10.98 39.77,0 l 34.28,34.28 21.09,-21.09 -55.37,-55.37 c -10.98,-10.98 -28.79,-10.98 -39.77,0 m 0,-65.61 -88.17,88.17 24.37,24.38 63.8,-63.8 c 10.98,-10.98 28.79,-10.98 39.77,0 l 63.8,63.8 24.37,-24.37 -88.17,-88.17 c -10.98,-10.99 -28.79,-10.99 -39.77,-0.01 m 152.7,38.66 -120.44,-120.44 c -3.42,-3.42 -7.9,-5.13 -12.38,-5.13 -4.48,0 -8.96,1.71 -12.37,5.13 L 5.1225,132.77 c -6.83,6.83 -6.83,17.91 0,24.75 l 16.33,16.33 96.61,-96.61 c 10.98,-10.98 28.79,-10.98 39.77,0 l 96.61,96.61 16.33,-16.33 c 6.82,-6.83 6.82,-17.91 -0.02,-24.75"
   id="path65"
   style="fill:url(#SVGID_1_)" />
</svg>
